<?xml version="1.0" encoding="iso-8859-1"?>
<!-- Generator: Adobe Illustrator 19.0.0, SVG Export Plug-In . SVG Version: 6.00 Build 0)  -->
<svg version="1.1" id="Capa_1" xmlns="http://www.w3.org/2000/svg" xmlns:xlink="http://www.w3.org/1999/xlink" x="0px" y="0px"
	 viewBox="0 0 331.839 331.839" style="enable-background:new 0 0 331.839 331.839;" xml:space="preserve">
<g>
	<path style="fill:#FFE600;" d="M292.849,115.401l-93.833-45.802c-3.587-1.859-7.869,0.746-7.869,4.785v91.605
		c0,4.041,4.282,6.646,7.869,4.785l93.833-45.802C296.73,122.961,296.73,117.411,292.849,115.401z"/>
	<path style="fill:#FFE600;" d="M196.57,178.23c-2.193,0-4.403-0.601-6.383-1.804c-3.673-2.237-5.868-6.137-5.868-10.436V74.383
		c0-4.301,2.193-8.201,5.868-10.436c3.669-2.231,8.153-2.386,11.967-0.413l93.689,45.734c0.049,0.024,0.101,0.046,0.147,0.073
		c4.07,2.106,6.596,6.263,6.596,10.846c0,4.582-2.526,8.74-6.596,10.846l-93.979,45.877
		C200.317,177.789,198.451,178.23,196.57,178.23z M195.927,164.689c-0.017,0.007-0.034,0.017-0.046,0.024L195.927,164.689z
		 M197.973,76.683v87.006l89.12-43.503L197.973,76.683z M196.024,75.729c0.007,0.007,0.014,0.01,0.024,0.014L196.024,75.729z"/>
</g>
<path style="fill:#FFFFFF;" d="M61.44,128.695v181.982c0,10.182,10.788,16.742,19.828,12.059l236.407-115.398
	c9.779-5.065,9.779-19.052,0-24.119L81.268,67.822c-9.04-4.683-19.828,1.877-19.828,12.059"/>
<path style="fill:#602F75;" d="M75.047,331.12c-3.663,0-7.337-1.004-10.631-3.007c-6.141-3.734-9.803-10.25-9.803-17.437v-181.98
	c0-3.77,3.057-6.827,6.827-6.827s6.827,3.057,6.827,6.827v181.98c0,3.43,2.27,5.18,3.243,5.774c0.976,0.59,3.574,1.804,6.617,0.227
	l236.556-115.47c2.137-1.109,3.5-3.354,3.5-5.927s-1.364-4.816-3.647-6.001L78.275,73.956c-3.19-1.637-5.78-0.433-6.764,0.154
	c-0.973,0.594-3.243,2.343-3.243,5.774c0,3.77-3.057,6.827-6.827,6.827c-3.77,0-6.827-3.057-6.827-6.827
	c0-7.187,3.662-13.703,9.803-17.437c6.134-3.736,13.604-3.994,19.99-0.683l236.264,115.323c6.943,3.593,11.167,10.537,11.167,18.193
	c0,7.656-4.224,14.601-11.02,18.12L84.263,328.869C81.37,330.369,78.213,331.12,75.047,331.12z"/>
<g>
	<path style="fill:#EA3457;" d="M217.755,190.494l-93.833-45.802c-3.587-1.859-7.869,0.746-7.869,4.785v91.605
		c0,4.041,4.282,6.646,7.869,4.785l93.833-45.802C221.636,198.054,221.636,192.504,217.755,190.494z"/>
	<path style="fill:#EA3457;" d="M121.477,253.323c-2.193,0-4.403-0.601-6.383-1.804c-3.673-2.237-5.868-6.137-5.868-10.436v-91.607
		c0-4.301,2.193-8.201,5.868-10.436c3.673-2.234,8.146-2.383,11.967-0.413l93.689,45.734c0.05,0.024,0.101,0.046,0.147,0.073
		c4.07,2.106,6.596,6.263,6.596,10.846s-2.526,8.74-6.596,10.846l-93.979,45.877C125.223,252.883,123.358,253.323,121.477,253.323z
		 M120.834,239.782c-0.017,0.007-0.034,0.017-0.046,0.024L120.834,239.782z M122.88,151.776v87.006L212,195.279L122.88,151.776z
		 M120.931,150.822c0.007,0.007,0.014,0.01,0.024,0.014L120.931,150.822z"/>
</g>
<g>
	<path style="fill:#00E7FF;" d="M47.787,48.506c-1.746,0-3.494-0.667-4.826-2L25.894,29.439c-2.666-2.666-2.666-6.987,0-9.653
		s6.987-2.666,9.653,0l17.067,17.067c2.666,2.666,2.666,6.987,0,9.653C51.28,47.839,49.534,48.506,47.787,48.506z"/>
	<path style="fill:#00E7FF;" d="M81.92,41.679c-3.77,0-6.827-3.057-6.827-6.827V7.546c0-3.77,3.057-6.827,6.827-6.827
		c3.77,0,6.827,3.057,6.827,6.827v27.307C88.747,38.623,85.69,41.679,81.92,41.679z"/>
	<path style="fill:#00E7FF;" d="M34.133,75.813H6.827C3.057,75.813,0,72.756,0,68.986s3.057-6.827,6.827-6.827h27.307
		c3.77,0,6.827,3.057,6.827,6.827S37.903,75.813,34.133,75.813z"/>
</g>
<g>
</g>
<g>
</g>
<g>
</g>
<g>
</g>
<g>
</g>
<g>
</g>
<g>
</g>
<g>
</g>
<g>
</g>
<g>
</g>
<g>
</g>
<g>
</g>
<g>
</g>
<g>
</g>
<g>
</g>
</svg>
